<svg xmlns="http://www.w3.org/2000/svg" xmlns:svg="http://www.w3.org/2000/svg" id="svg8" width="210mm" height="297mm" version="1.1" viewBox="0 0 210 297"><metadata id="metadata5"/><g id="layer1"><g id="_x2601__xFE0F__1_" transform="matrix(1.2539577,0,0,0.87128312,42.070902,18.30887)"><path id="path827" stroke-miterlimit="10" d="m 15.9,30.3 c 0,0.4 -0.4,0.8 -0.8,0.8 C 10,31.6 6,36.7 6,42.9 6,49.5 10.5,54.8 16.2,54.8 H 54.9 C 61,54.8 66,49.1 66,42.2 66,35.6 61.4,30.1 55.6,29.7 c -0.4,0 -0.8,-0.3 -0.9,-0.8 -1.3,-6.7 -7.3,-11.7 -14.3,-11.7 -4.6,0 -8.7,2.1 -11.3,5.4 -0.3,0.4 -0.8,0.5 -1.1,0.4 -1,-0.4 -2.1,-0.6 -3.3,-0.6 -4.6,-0.1 -8.4,3.4 -8.8,7.9 z" style="fill:none;stroke:#000;stroke-width:2;stroke-linecap:round;stroke-linejoin:round;stroke-miterlimit:10"/></g><text style="font-style:normal;font-weight:400;font-size:12.14800739px;line-height:1.25;font-family:sans-serif;letter-spacing:0;word-spacing:0;fill:#000;fill-opacity:1;stroke:none;stroke-width:.30370018" id="text841" x="61.141" y="52.094" transform="scale(0.87119907,1.1478433)" xml:space="preserve"><tspan id="tspan839" x="61.141" y="52.094" style="stroke-width:.30370018"><tspan style="fill:#a40;stroke-width:.30370018" id="tspan849">$ell</tspan>Your<tspan style="fill:#a40;stroke-width:.30370018" id="tspan851">$aa$</tspan></tspan></text></g></svg>