<svg xmlns="http://www.w3.org/2000/svg" xmlns:svg="http://www.w3.org/2000/svg" id="svg8" width="128mm" height="128mm" version="1.1" viewBox="0 0 128 128"><metadata id="metadata5"/><g id="layer1" transform="translate(0,-169)"><g id="_x2601__xFE0F__1_" transform="matrix(1.9735101,0,0,2.4651916,-7.1769142,142.73593)"><path id="path827" stroke-miterlimit="10" d="m 15.9,30.3 c 0,0.4 -0.4,0.8 -0.8,0.8 C 10,31.6 6,36.7 6,42.9 6,49.5 10.5,54.8 16.2,54.8 H 54.9 C 61,54.8 66,49.1 66,42.2 66,35.6 61.4,30.1 55.6,29.7 c -0.4,0 -0.8,-0.3 -0.9,-0.8 -1.3,-6.7 -7.3,-11.7 -14.3,-11.7 -4.6,0 -8.7,2.1 -11.3,5.4 -0.3,0.4 -0.8,0.5 -1.1,0.4 -1,-0.4 -2.1,-0.6 -3.3,-0.6 -4.6,-0.1 -8.4,3.4 -8.8,7.9 z" style="fill:none;stroke:#000;stroke-width:2;stroke-linecap:round;stroke-linejoin:round;stroke-miterlimit:10"/></g><text style="font-style:normal;font-weight:400;font-size:63.0433197px;line-height:1.25;font-family:sans-serif;letter-spacing:0;word-spacing:0;fill:#000;fill-opacity:1;stroke:none;stroke-width:1.57608283" id="text841" x="28.767" y="243.179" transform="scale(0.92891138,1.076529)" xml:space="preserve"><tspan id="tspan839" x="28.767" y="243.179" style="stroke-width:1.57608283"><tspan style="fill:#a40;stroke-width:1.57608283" id="tspan849">$$</tspan></tspan></text></g></svg>